[img]http://img862.imageshack.us/img862/1247/km5ej.jpg[/img]

[code]

Columbus Circle 2012 DVDRip XviD AC3-26k
 
http://www.imdb.com/title/tt1465533/

Plot:
An heiress who's been shut inside her apartment building for nearly two decades is forced to confront 

her 
fears after one of her neighbors is killed and a detective arrives to begin the investigation.

Sources - PAL DVD5...Thanks :P

Format                                   : AVI
Format/Info                              : Audio Video Interleave
File size                                : 1.41 GiB
Duration                                 : 1h 22mn
Overall bit rate                         : 2 457 Kbps

Video
ID                                       : 0
Format                                   : MPEG-4 Visual
Format profile                           : Advanced Simple@L5
Format settings, BVOP                    : 1
Format settings, QPel                    : No
Format settings, GMC                     : No warppoints
Format settings, Matrix                  : Default (H.263)
Codec ID                                 : XVID
Codec ID/Hint                            : XviD
Duration                                 : 1h 22mn
Bit rate                                 : 2 002 Kbps
Width                                    : 720 pixels
Height                                   : 288 pixels
Display aspect ratio                     : 2.500
Frame rate                               : 25.000 fps
Color space                              : YUV
Chroma subsampling                       : 4:2:0
Bit depth                                : 8 bits
Scan type                                : Progressive
Compression mode                         : Lossy
Bits/(Pixel*Frame)                       : 0.386
Stream size                              : 1.15 GiB (81%)
Writing library                          : XviD 1.2.1 (UTC 2008-12-04)

Audio
ID                                       : 1
Format                                   : AC-3
Format/Info                              : Audio Coding 3
Mode extension                           : CM (complete main)
Codec ID                                 : 2000
Duration                                 : 1h 22mn
Bit rate mode                            : Constant
Bit rate                                 : 448 Kbps
Channel(s)                               : 6 channels
Channel positions                        : Front: L C R, Side: L R, LFE
Sampling rate                            : 48.0 KHz
Bit depth                                : 16 bits
Compression mode                         : Lossy
Stream size                              : 264 MiB (18%)
Alignment                                : Aligned on interleaves
Interleave, duration                     : 64 ms (1.60 video frames)
Interleave, preload duration             : 192 ms




Notes -
Did my thing.. turned out real nice... enjoy

[/code]
Screens:
[IMG]http://i.imgur.com/rw8kw.png[/IMG]
[IMG]http://i.imgur.com/0GcCT.png[/IMG]
[IMG]http://img842.imageshack.us/img842/7205/columbuscircle2012dvdri.jpg[/IMG]
[IMG]http://img835.imageshack.us/img835/3507/28233731.png[/IMG]
[IMG]http://img837.imageshack.us/img837/3589/92322434.png[/IMG]

Greetz:
Xtreme 

Encode|FYA|ILLUMANTI|CM8|RX|VISI​ON|HDSCENE|xTriLL|DTRG|CRYS|REMIX​HD|BIDA|RX|REFILL|INSPiRAL|SIC|
|HO​PE|Anonymous|GooN
To all the people who have helped me  you know who you are

Anything to offer email us @: 26k@hushmail.me


[img]http://img851.imageshack.us/img851/5503/26ks.jpg[/img]
Thank you smallz for banner!